<?xml version="1.0" encoding="utf-8"?>
<!-- Generator: Adobe Illustrator 15.1.0, SVG Export Plug-In . SVG Version: 6.00 Build 0)  -->
<!DOCTYPE svg PUBLIC "-//W3C//DTD SVG 1.1//EN" "http://www.w3.org/Graphics/SVG/1.1/DTD/svg11.dtd">
<svg version="1.1" id="Layer_1" xmlns="http://www.w3.org/2000/svg" xmlns:xlink="http://www.w3.org/1999/xlink" x="0px" y="0px"
	 width="38.774px" height="33.593px" viewBox="0 0 38.774 33.593" enable-background="new 0 0 38.774 33.593" xml:space="preserve">
<path fill="#010101" d="M1.276,20.333l-0.003,0.01l13.924,6.071l-0.092,3.851l-2.112-0.616l-0.226,0.771l2.316,0.677l0.773,0.227
	l0.594,2.27L18.176,32l0.771,0.226l2.315,0.678l0.226-0.771l-2.11-0.617l1.998-3.295l14.999,2.39l0.003-0.009
	c1.011,0.197,2.02-0.396,2.315-1.401c0.312-1.066-0.3-2.183-1.365-2.494L23.244,21.79l3.043-14.66c0,0,5.471-0.077,6.262-2.78
	l-5.406-1.58L26.275,0l-2.222,1.864l-5.405-1.58C17.858,2.986,22.425,6,22.425,6l-5.336,13.989L2.577,16.542
	c-1.067-0.313-2.184,0.299-2.496,1.364C-0.214,18.914,0.319,19.958,1.276,20.333z"/>
</svg>
