<?xml version="1.0" encoding="utf-8"?>
<!-- Generator: Adobe Illustrator 15.1.0, SVG Export Plug-In . SVG Version: 6.00 Build 0)  -->
<!DOCTYPE svg PUBLIC "-//W3C//DTD SVG 1.1//EN" "http://www.w3.org/Graphics/SVG/1.1/DTD/svg11.dtd">
<svg version="1.1" id="Layer_1" xmlns="http://www.w3.org/2000/svg" xmlns:xlink="http://www.w3.org/1999/xlink" x="0px" y="0px"
	 width="38.774px" height="33.593px" viewBox="0 0 38.774 33.593" enable-background="new 0 0 38.774 33.593" xml:space="preserve">
<path fill="#010101" d="M37.498,13.26l0.003-0.009L23.577,7.179l0.092-3.851l2.112,0.616l0.226-0.771L23.69,2.496L22.917,2.27
	L22.323,0l-1.725,1.593l-0.771-0.226l-2.315-0.678l-0.226,0.772l2.11,0.617l-1.998,3.295L2.399,2.983L2.396,2.993
	c-1.011-0.197-2.02,0.396-2.315,1.401c-0.312,1.067,0.3,2.183,1.365,2.495l14.084,4.916l-3.043,14.661c0,0-5.471,0.077-6.262,2.78
	l5.406,1.58l0.867,2.769l2.222-1.864l5.405,1.58c0.79-2.701-3.776-5.715-3.776-5.715l5.336-13.99l14.512,3.447
	c1.067,0.313,2.184-0.299,2.496-1.364C38.988,14.68,38.455,13.636,37.498,13.26z"/>
</svg>
