<?xml version="1.0" encoding="utf-8"?>
<!-- Generator: Adobe Illustrator 15.1.0, SVG Export Plug-In . SVG Version: 6.00 Build 0)  -->
<!DOCTYPE svg PUBLIC "-//W3C//DTD SVG 1.1//EN" "http://www.w3.org/Graphics/SVG/1.1/DTD/svg11.dtd">
<svg version="1.1" id="Layer_1" xmlns="http://www.w3.org/2000/svg" xmlns:xlink="http://www.w3.org/1999/xlink" x="0px" y="0px"
	 width="66.25px" height="49.625px" viewBox="-16.157 -3.418 66.25 49.625" enable-background="new -16.157 -3.418 66.25 49.625"
	 xml:space="preserve">
<radialGradient id="SVGID_1_" cx="11.7869" cy="34.98" r="11.8376" gradientTransform="matrix(-4.815325e-008 0.8662 -2.7215 -9.353671e-008 113.0757 2.8784)" gradientUnits="userSpaceOnUse">
	<stop  offset="0.0303" style="stop-color:#465053"/>
	<stop  offset="0.1997" style="stop-color:#495356;stop-opacity:0.8253"/>
	<stop  offset="0.3436" style="stop-color:#545D60;stop-opacity:0.6769"/>
	<stop  offset="0.4782" style="stop-color:#656E70;stop-opacity:0.5381"/>
	<stop  offset="0.6073" style="stop-color:#7E8587;stop-opacity:0.405"/>
	<stop  offset="0.7324" style="stop-color:#9EA3A5;stop-opacity:0.276"/>
	<stop  offset="0.8544" style="stop-color:#C5C8C9;stop-opacity:0.1502"/>
	<stop  offset="0.9719" style="stop-color:#F3F4F4;stop-opacity:0.029"/>
	<stop  offset="1" style="stop-color:#FFFFFF;stop-opacity:0"/>
</radialGradient>
<ellipse fill="url(#SVGID_1_)" cx="17.876" cy="13.088" rx="32.217" ry="10.253"/>
<radialGradient id="SVGID_2_" cx="17.8782" cy="30.6089" r="11.8374" gradientTransform="matrix(0.8102 0 0 1.9435 3.3932 -43.1517)" gradientUnits="userSpaceOnUse">
	<stop  offset="0" style="stop-color:#465053"/>
	<stop  offset="0.1582" style="stop-color:#4A5456;stop-opacity:0.8418"/>
	<stop  offset="0.3058" style="stop-color:#555E61;stop-opacity:0.6942"/>
	<stop  offset="0.4493" style="stop-color:#687073;stop-opacity:0.5507"/>
	<stop  offset="0.5902" style="stop-color:#82898B;stop-opacity:0.4098"/>
	<stop  offset="0.7294" style="stop-color:#A5AAAB;stop-opacity:0.2706"/>
	<stop  offset="0.8651" style="stop-color:#CED1D1;stop-opacity:0.1349"/>
	<stop  offset="1" style="stop-color:#FFFFFF;stop-opacity:0"/>
</radialGradient>
<ellipse fill="url(#SVGID_2_)" cx="17.878" cy="16.339" rx="9.59" ry="23.007"/>
<radialGradient id="SVGID_3_" cx="17.8777" cy="46.2007" r="11.8376" gradientTransform="matrix(0.9054 0 0 0.7546 1.6914 -2.5899)" gradientUnits="userSpaceOnUse">
	<stop  offset="0" style="stop-color:#465053"/>
	<stop  offset="0.1634" style="stop-color:#4A5356;stop-opacity:0.8366"/>
	<stop  offset="0.3112" style="stop-color:#555E61;stop-opacity:0.6888"/>
	<stop  offset="0.4531" style="stop-color:#676F72;stop-opacity:0.5469"/>
	<stop  offset="0.5914" style="stop-color:#81888A;stop-opacity:0.4086"/>
	<stop  offset="0.727" style="stop-color:#A2A7A9;stop-opacity:0.273"/>
	<stop  offset="0.8605" style="stop-color:#CBCECF;stop-opacity:0.1395"/>
	<stop  offset="0.9902" style="stop-color:#FBFBFB;stop-opacity:0.0098"/>
	<stop  offset="1" style="stop-color:#FFFFFF;stop-opacity:0"/>
</radialGradient>
<ellipse fill="url(#SVGID_3_)" cx="17.878" cy="32.274" rx="10.717" ry="8.933"/>
<g>
	<path fill="#FFFFFF" d="M36.159,11.028v-0.01L21.086,9.137l-1.002-3.72l2.201-0.007l-0.003-0.803l-2.414,0.005l-0.806,0.002
		l-1.211-2.009l-1.203,2.016l-0.803,0.002l-2.414,0.005l0.002,0.807l2.199-0.006L14.65,9.154l-15.063,1.955l0,0.01
		c-1.025,0.097-1.826,0.952-1.824,2c0.003,1.11,0.906,2.009,2.016,2.006l14.9,0.728l1.231,14.921c0,0-5.226,1.623-5.218,4.438
		l5.632-0.015l1.615,2.41l1.603-2.418l5.632-0.015c-0.007-2.814-5.238-4.412-5.238-4.412l1.157-14.929l14.893-0.801
		c1.112-0.002,2.01-0.905,2.009-2.016C37.991,11.968,37.183,11.119,36.159,11.028z"/>
</g>
<g>
	<g>
		<path fill="#FFFFFF" d="M36.159,11.028v-0.01L21.086,9.137l-1.002-3.72l2.201-0.007l-0.003-0.803l-2.414,0.005l-0.806,0.002
			l-1.211-2.009l-1.203,2.016l-0.803,0.002l-2.414,0.005l0.002,0.807l2.199-0.006L14.65,9.154l-15.063,1.955l0,0.01
			c-1.025,0.097-1.826,0.952-1.824,2c0.003,1.11,0.906,2.009,2.016,2.006l14.9,0.728l1.231,14.921c0,0-5.226,1.623-5.218,4.438
			l5.632-0.015l1.615,2.41l1.603-2.418l5.632-0.015c-0.007-2.814-5.238-4.412-5.238-4.412l1.157-14.929l14.893-0.801
			c1.112-0.002,2.01-0.905,2.009-2.016C37.991,11.968,37.183,11.119,36.159,11.028z"/>
	</g>
</g>
</svg>
