<?xml version="1.0" encoding="utf-8"?>
<!-- Generator: Adobe Illustrator 15.1.0, SVG Export Plug-In . SVG Version: 6.00 Build 0)  -->
<!DOCTYPE svg PUBLIC "-//W3C//DTD SVG 1.1//EN" "http://www.w3.org/Graphics/SVG/1.1/DTD/svg11.dtd">
<svg version="1.1" id="Layer_1" xmlns="http://www.w3.org/2000/svg" xmlns:xlink="http://www.w3.org/1999/xlink" x="0px" y="0px"
	 width="34.936px" height="40.163px" viewBox="0 0 34.936 40.163" enable-background="new 0 0 34.936 40.163" xml:space="preserve">
<path fill="#010101" d="M7.34,1.95L7.33,1.951L6.331,17.108l-3.655,1.217l-0.135-2.196l-0.802,0.049l0.146,2.41l0.049,0.805
	L0,20.718l2.082,1.083l0.049,0.803l0.146,2.409l0.803-0.05l-0.134-2.194l3.776,0.764l2.829,14.924l0.01-0.001
	c0.156,1.018,1.056,1.767,2.102,1.704c1.109-0.067,1.953-1.021,1.885-2.129l-0.142-14.917l14.825-2.099c0,0,1.924,5.121,4.735,4.951
	l-0.343-5.622l2.312-1.753l-2.507-1.459l-0.343-5.622c-2.809,0.171-4.099,5.488-4.099,5.488l-14.971-0.285L11.349,1.89
	c-0.068-1.11-1.021-1.953-2.13-1.887C8.172,0.067,7.37,0.922,7.34,1.95z"/>
</svg>
