<?xml version="1.0" encoding="utf-8"?>
<!-- Generator: Adobe Illustrator 15.1.0, SVG Export Plug-In . SVG Version: 6.00 Build 0)  -->
<!DOCTYPE svg PUBLIC "-//W3C//DTD SVG 1.1//EN" "http://www.w3.org/Graphics/SVG/1.1/DTD/svg11.dtd">
<svg version="1.1" id="Layer_1" xmlns="http://www.w3.org/2000/svg" xmlns:xlink="http://www.w3.org/1999/xlink" x="0px" y="0px"
	 width="34.936px" height="40.163px" viewBox="0 0 34.936 40.163" enable-background="new 0 0 34.936 40.163" xml:space="preserve">
<path fill="#010101" d="M27.596,38.213l0.01-0.001l0.999-15.157l3.655-1.217l0.135,2.196l0.802-0.049l-0.146-2.409l-0.049-0.805
	l1.935-1.326l-2.082-1.083l-0.049-0.802l-0.146-2.409L31.855,15.2l0.134,2.195l-3.776-0.764L25.384,1.707l-0.01,0
	c-0.156-1.018-1.056-1.767-2.102-1.704c-1.109,0.068-1.953,1.021-1.885,2.129l0.142,14.917L6.704,19.148
	c0,0-1.924-5.122-4.735-4.951l0.343,5.622L0,21.572l2.507,1.459l0.343,5.622c2.809-0.171,4.099-5.488,4.099-5.488l14.971,0.285
	l1.668,14.822c0.068,1.11,1.021,1.953,2.13,1.887C26.764,40.096,27.565,39.24,27.596,38.213z"/>
</svg>
