<?xml version="1.0" encoding="utf-8"?>
<!-- Generator: Adobe Illustrator 15.1.0, SVG Export Plug-In . SVG Version: 6.00 Build 0)  -->
<!DOCTYPE svg PUBLIC "-//W3C//DTD SVG 1.1//EN" "http://www.w3.org/Graphics/SVG/1.1/DTD/svg11.dtd">
<svg version="1.1" id="Layer_1" xmlns="http://www.w3.org/2000/svg" xmlns:xlink="http://www.w3.org/1999/xlink" x="0px" y="0px"
	 width="39.606px" height="34.396px" viewBox="0 0 39.606 34.396" enable-background="new 0 0 39.606 34.396" xml:space="preserve">
<path fill="#010101" d="M38.143,11.704l0.002-0.011L23.691,7.022l-0.287-3.843l2.162,0.407l0.148-0.791l-2.372-0.446L22.552,2.2
	L21.737,0l-1.559,1.754l-0.79-0.149l-2.372-0.446L16.868,1.95l2.161,0.406l-1.664,3.475L2.203,4.928l-0.002,0.01
	C1.177,4.84,0.23,5.53,0.035,6.559C-0.17,7.651,0.548,8.702,1.64,8.908l14.499,3.507l-1.587,14.889c0,0-5.437,0.614-5.958,3.381
	l5.535,1.042l1.136,2.67l2.027-2.074l5.535,1.041c0.521-2.767-4.32-5.315-4.32-5.315L22.44,13.6l14.781,2.004
	c1.093,0.205,2.144-0.513,2.35-1.604C39.766,12.969,39.132,11.984,38.143,11.704z"/>
</svg>
