<?xml version="1.0" encoding="utf-8"?>
<!-- Generator: Adobe Illustrator 15.1.0, SVG Export Plug-In . SVG Version: 6.00 Build 0)  -->
<!DOCTYPE svg PUBLIC "-//W3C//DTD SVG 1.1//EN" "http://www.w3.org/Graphics/SVG/1.1/DTD/svg11.dtd">
<svg version="1.1" id="Layer_1" xmlns="http://www.w3.org/2000/svg" xmlns:xlink="http://www.w3.org/1999/xlink" x="0px" y="0px"
	 width="34.936px" height="40.164px" viewBox="0 0 34.936 40.164" enable-background="new 0 0 34.936 40.164" xml:space="preserve">
<g>
	<radialGradient id="SVGID_1_" cx="17.4504" cy="20.0815" r="18.4708" gradientUnits="userSpaceOnUse">
		<stop  offset="0" style="stop-color:#E5E5E5"/>
		<stop  offset="1" style="stop-color:#C8C8C8"/>
	</radialGradient>
	<path fill="url(#SVGID_1_)" d="M25.597,39.914c-0.93,0-1.703-0.728-1.759-1.657l-1.694-15.052l-15.39-0.293l-0.047,0.195
		c-0.012,0.049-1.198,4.813-3.623,5.266l-0.335-5.49L0.45,21.544l2.12-1.607l-0.335-5.49c2.466,0.155,4.218,4.742,4.236,4.789
		l0.07,0.188l15.24-2.158L21.637,2.129c-0.029-0.482,0.126-0.934,0.438-1.286c0.312-0.352,0.742-0.562,1.212-0.591l0.107-0.003
		c0.871,0,1.6,0.629,1.732,1.496l0.032,0.212h0.018l2.822,14.886l4.259,0.862l-0.139-2.27l0.307-0.019l0.188,3.103l1.838,0.956
		l-1.707,1.171l0.188,3.105l-0.303,0.02l-0.14-2.272l-4.123,1.374l-0.995,15.091h-0.008l-0.018,0.242
		c-0.027,0.917-0.734,1.65-1.644,1.705L25.597,39.914z"/>
	<path d="M23.395,0.499L23.395,0.499c0.746,0,1.371,0.54,1.485,1.284l0.075,0.424h0.015l2.752,14.517l0.063,0.33l0.329,0.067
		l3.775,0.764l0.441,0.089l0.025,0.418l0.018,0.283l0.251,0.13l1.342,0.699l-1.246,0.854l-0.234,0.16l0.018,0.283l0.025,0.42
		l-0.427,0.142l-3.655,1.218l-0.318,0.106l-0.022,0.335l-0.968,14.69h-0.027l-0.015,0.484c-0.023,0.787-0.629,1.417-1.407,1.464
		c-0.031,0.002-0.062,0.003-0.092,0.003c-0.798,0-1.461-0.625-1.512-1.447l-1.668-14.821l-0.049-0.436l-0.438-0.009L6.959,22.666
		l-0.401-0.007l-0.095,0.389c-0.308,1.262-1.43,4.388-3.149,5.003L3.006,23L2.99,22.733l-0.231-0.134L0.9,21.517l1.714-1.3
		l0.213-0.162l-0.016-0.267l-0.308-5.051c1.785,0.402,3.281,3.386,3.734,4.586l0.141,0.375l0.397-0.056l14.824-2.099l0.434-0.062
		l-0.004-0.438L21.886,2.101c-0.024-0.402,0.108-0.79,0.376-1.092s0.638-0.482,1.04-0.507C23.333,0.5,23.364,0.499,23.395,0.499
		 M23.395-0.001c-0.041,0-0.082,0.001-0.123,0.004c-1.108,0.068-1.953,1.021-1.885,2.129l0.142,14.917L6.704,19.148
		c0,0-1.862-4.955-4.597-4.955c-0.046,0-0.092,0.001-0.138,0.004l0.343,5.622L0,21.572l2.507,1.459l0.343,5.622
		c2.81-0.171,4.1-5.487,4.1-5.487l14.971,0.285l1.668,14.821c0.064,1.069,0.952,1.892,2.009,1.892c0.04,0,0.081-0.002,0.121-0.004
		c1.046-0.063,1.847-0.92,1.878-1.947h0.01l0.999-15.157l3.655-1.218l0.135,2.197l0.802-0.05l-0.146-2.409l-0.049-0.805l1.935-1.326
		l-2.082-1.083l-0.049-0.802l-0.146-2.409L31.855,15.2l0.134,2.195l-3.775-0.764L25.384,1.707h-0.01
		C25.224,0.729,24.387-0.001,23.395-0.001L23.395-0.001z"/>
</g>
</svg>
