<?xml version="1.0" encoding="utf-8"?>
<!-- Generator: Adobe Illustrator 15.1.0, SVG Export Plug-In . SVG Version: 6.00 Build 0)  -->
<!DOCTYPE svg PUBLIC "-//W3C//DTD SVG 1.1//EN" "http://www.w3.org/Graphics/SVG/1.1/DTD/svg11.dtd">
<svg version="1.1" id="Layer_1" xmlns="http://www.w3.org/2000/svg" xmlns:xlink="http://www.w3.org/1999/xlink" x="0px" y="0px"
	 width="36.459px" height="33.151px" viewBox="0 0 36.459 33.151" enable-background="new 0 0 36.459 33.151" xml:space="preserve">
<path fill="#010101" d="M2.732,33.013l0.006,0.009l14.352-4.976l2.543,2.893l-1.97,0.98l0.356,0.719l2.162-1.072l0.722-0.358
	l1.974,1.267l0.189-2.34l0.719-0.357l2.162-1.071l-0.357-0.721l-1.969,0.978l-0.766-3.777l12.648-8.41l-0.006-0.009
	c0.877-0.54,1.217-1.661,0.754-2.6c-0.494-0.996-1.701-1.401-2.695-0.908l-13.686,5.934L12.169,6.351c0,0,3.97-3.766,2.718-6.289
	L9.841,2.565L7.328,1.117L6.958,3.994L1.914,6.497c1.25,2.521,6.65,1.641,6.65,1.641l5.561,13.903L1.119,29.344
	c-0.996,0.493-1.402,1.699-0.91,2.694C0.675,32.979,1.775,33.386,2.732,33.013z"/>
</svg>
