<?xml version="1.0" encoding="utf-8"?>
<!-- Generator: Adobe Illustrator 15.1.0, SVG Export Plug-In . SVG Version: 6.00 Build 0)  -->
<!DOCTYPE svg PUBLIC "-//W3C//DTD SVG 1.1//EN" "http://www.w3.org/Graphics/SVG/1.1/DTD/svg11.dtd">
<svg version="1.1" id="Layer_1" xmlns="http://www.w3.org/2000/svg" xmlns:xlink="http://www.w3.org/1999/xlink" x="0px" y="0px"
	 width="86px" height="83.5px" viewBox="1 15.5 86 83.5" enable-background="new 1 15.5 86 83.5" xml:space="preserve">
<path fill="#999999" d="M1,32v67h86V32H1z M22,94H6V78h16V94z M22,74H6V58h16V74z M22,54H6V38h16V54z M42,94H26V78h16V94z M42,74H26
	V58h16V74z M42,54H26V38h16V54z M62,94H46V78h16V94z M62,74H46V58h16V74z M62,54H46V38h16V54z M82,94H66V78h16V94z M82,74H66V58h16
	V74z M82,54H66V38h16V54z"/>
<path fill="#999999" d="M1,15.5V29h86V15.5H1z"/>
</svg>
