<?xml version="1.0" encoding="utf-8"?>
<!-- Generator: Adobe Illustrator 15.1.0, SVG Export Plug-In . SVG Version: 6.00 Build 0)  -->
<!DOCTYPE svg PUBLIC "-//W3C//DTD SVG 1.1//EN" "http://www.w3.org/Graphics/SVG/1.1/DTD/svg11.dtd">
<svg version="1.1" id="Layer_1" xmlns="http://www.w3.org/2000/svg" xmlns:xlink="http://www.w3.org/1999/xlink" x="0px" y="0px"
	 width="407px" height="65px" viewBox="-29.944 -6.75 407 65" enable-background="new -29.944 -6.75 407 65" xml:space="preserve">
<text transform="matrix(1 0 0 1 265.4312 52.21)" display="none" fill="#59C98A" enable-background="new    " font-family="'Pacifico-Regular'" font-size="72">air</text>
<g>
	<g>
		<g>
			<path fill="#E3E2E2" d="M329.755,46.037c-0.631,0.875-1.47,1.896-2.522,3.072c-1.051,1.176-2.231,2.293-3.542,3.36
				c-1.313,1.064-2.719,1.966-4.22,2.702c-1.502,0.739-3.006,1.106-4.508,1.106c-1.802,0-3.306-0.579-4.506-1.741
				c-1.203-1.158-2.24-2.846-3.115-5.058c-0.654,0.764-1.46,1.542-2.417,2.335c-0.954,0.791-2,1.511-3.133,2.15
				c-1.136,0.641-2.315,1.165-3.544,1.577c-1.229,0.409-2.458,0.613-3.687,0.613c-1.313,0-2.591-0.266-3.83-0.799
				c-1.246-0.531-2.342-1.298-3.299-2.293c-0.958-0.998-1.723-2.212-2.296-3.646c-0.571-1.437-0.859-3.055-0.859-4.855
				c0-2.051,0.288-4.154,0.859-6.31c0.573-2.158,1.368-4.268,2.378-6.332c1.01-2.063,2.205-4.007,3.585-5.839
				c1.377-1.829,2.889-3.426,4.528-4.792c1.637-1.365,3.363-2.451,5.18-3.256c1.817-0.807,3.668-1.208,5.553-1.208
				c0.628,0,1.12,0.122,1.475,0.368c0.354,0.245,0.651,0.524,0.883,0.84c0.229,0.313,0.455,0.619,0.675,0.921
				c0.22,0.298,0.493,0.517,0.817,0.654c0.328,0.139,0.663,0.225,1.005,0.267c0.341,0.04,0.69,0.063,1.044,0.063
				c0.302,0,0.606-0.008,0.921-0.023c0.315-0.013,0.623-0.02,0.924-0.02c0.41,0,0.793,0.042,1.146,0.124
				c0.354,0.081,0.669,0.259,0.941,0.533c0.273,0.272,0.485,0.654,0.638,1.146c0.147,0.49,0.224,1.16,0.224,2.006
				c0,1.313-0.138,2.767-0.409,4.363c-0.275,1.599-0.574,3.237-0.901,4.917c-0.328,1.681-0.629,3.359-0.901,5.04
				c-0.273,1.681-0.41,3.271-0.41,4.772c0,1.286,0.117,2.289,0.349,3.013c0.231,0.723,0.73,1.084,1.494,1.084
				c0.574,0,1.174-0.143,1.802-0.429c0.63-0.285,1.266-0.663,1.908-1.126c0.64-0.465,1.283-0.989,1.923-1.578
				c0.642-0.589,1.251-1.193,1.824-1.823c1.338-1.476,2.691-3.142,4.056-4.999L329.755,46.037z M294.764,42.798
				c0,0.683,0.047,1.348,0.142,1.985c0.097,0.646,0.271,1.218,0.515,1.723c0.244,0.507,0.572,0.917,0.982,1.231
				c0.409,0.313,0.928,0.469,1.556,0.469c1.013,0,1.927-0.435,2.745-1.312c0.819-0.874,1.53-1.924,2.13-3.153
				c0.602-1.229,1.087-2.5,1.455-3.812c0.37-1.31,0.608-2.401,0.717-3.278l2.5-12.044c-1.121,0-2.212,0.281-3.28,0.84
				c-1.063,0.559-2.067,1.32-3.01,2.274c-0.942,0.959-1.81,2.049-2.6,3.277c-0.794,1.23-1.477,2.519-2.05,3.872
				c-0.573,1.353-1.02,2.712-1.331,4.077C294.921,40.314,294.764,41.596,294.764,42.798z"/>
			<path fill="#E3E2E2" d="M349.829,47.345c-0.983,0.903-2.208,1.868-3.665,2.891c-1.463,1.025-3.04,1.969-4.734,2.828
				c-1.692,0.86-3.422,1.576-5.184,2.15c-1.761,0.575-3.434,0.863-5.02,0.863c-1.417,0-2.614-0.2-3.583-0.597
				s-1.754-0.949-2.355-1.658c-0.602-0.712-1.032-1.582-1.291-2.602c-0.258-1.024-0.388-2.151-0.388-3.383
				c0-1.719,0.197-3.718,0.593-5.999c0.396-2.281,0.883-4.644,1.456-7.09c0.574-2.44,1.181-4.88,1.821-7.311
				c0.64-2.433,1.209-4.673,1.701-6.72c0.191-0.71,0.575-1.317,1.148-1.823c0.571-0.506,1.223-0.917,1.944-1.23
				c0.724-0.314,1.477-0.546,2.254-0.696c0.778-0.15,1.482-0.225,2.109-0.225c1.146,0,1.926,0.212,2.336,0.634
				c0.412,0.427,0.616,0.99,0.616,1.703c0,0.6-0.14,1.466-0.41,2.602c-0.273,1.131-0.616,2.416-1.026,3.851
				c-0.41,1.433-0.847,2.976-1.311,4.629c-0.465,1.653-0.902,3.304-1.311,4.957c-0.411,1.652-0.753,3.265-1.023,4.835
				c-0.273,1.572-0.412,2.986-0.412,4.238c0,1.233,0.139,2.207,0.412,2.932c0.271,0.724,0.832,1.086,1.679,1.086
				c0.981,0,2.075-0.34,3.277-1.024c1.201-0.683,2.418-1.508,3.648-2.479c1.229-0.968,2.43-1.974,3.604-3.011
				c1.175-1.039,2.214-1.929,3.114-2.663L349.829,47.345L349.829,47.345z"/>
			<path fill="#E3E2E2" d="M346.919,47.509c0-1.2,0.069-2.602,0.203-4.198c0.137-1.6,0.321-3.284,0.557-5.061
				c0.231-1.776,0.504-3.584,0.819-5.427c0.314-1.846,0.646-3.602,1.002-5.267c0.357-1.666,0.711-3.195,1.064-4.589
				c0.357-1.394,0.711-2.54,1.065-3.442c0.221-0.599,0.438-1.078,0.658-1.432c0.217-0.355,0.47-0.637,0.756-0.842
				c0.286-0.205,0.643-0.342,1.063-0.411c0.426-0.067,0.951-0.102,1.579-0.102c0.709,0,1.264,0.034,1.66,0.102
				c0.396,0.069,0.688,0.234,0.882,0.493c0.189,0.258,0.308,0.636,0.347,1.127c0.041,0.492,0.062,1.162,0.062,2.009
				c0,1.009,0,2.232,0,3.665c0,1.434,0.028,2.848,0.082,4.241h0.452c0.547-1.092,1.158-2.313,1.844-3.665
				c0.684-1.351,1.475-2.615,2.376-3.791c0.9-1.173,1.926-2.163,3.073-2.97c1.146-0.805,2.472-1.208,3.976-1.208
				c0.517,0,1.021,0.088,1.515,0.267c0.489,0.177,0.922,0.431,1.289,0.756c0.366,0.33,0.661,0.731,0.88,1.209
				c0.22,0.479,0.328,1.021,0.328,1.619c0,0.465-0.066,1.113-0.205,1.947c-0.135,0.833-0.286,1.708-0.45,2.622
				c-0.164,0.916-0.315,1.804-0.452,2.663c-0.135,0.86-0.205,1.578-0.205,2.15c0,0.983,0.096,1.805,0.286,2.457
				c0.193,0.657,0.505,1.142,0.76,1.579c1.729,2.979-3.9,9.099-6.943,5.738c-1.035-1.144-1.285-2.87-1.639-4.551
				c-0.358-1.675-0.643-3.377-0.863-5.099h-0.653l-7.334,20.444c-0.382,1.064-0.744,1.947-1.086,2.642
				c-0.345,0.699-0.691,1.267-1.045,1.701c-0.356,0.437-0.736,0.745-1.147,0.923c-0.41,0.177-0.859,0.269-1.353,0.269
				c-1.12,0-2.021-0.242-2.703-0.721c-0.682-0.477-1.209-1.118-1.579-1.923c-0.366-0.806-0.61-1.723-0.735-2.744
				C346.981,49.664,346.919,48.604,346.919,47.509z"/>
		</g>
		<path fill="#E3E2E2" d="M331.135,8.843c0.225,0.353,0.507,0.629,0.848,0.822c0.073,0.043,0.16,0.073,0.243,0.109
			c0,0.132-0.008,0.265,0.007,0.399c0.053,0.51,0.191,0.943,0.415,1.296c0.225,0.354,0.509,0.627,0.849,0.822
			c0.342,0.197,0.732,0.325,1.169,0.392c0.438,0.067,0.9,0.076,1.383,0.024c0.774-0.079,1.408-0.265,1.898-0.56
			c0.068-0.04,0.115-0.088,0.178-0.128c0.247,0.1,0.511,0.181,0.802,0.227c0.438,0.067,0.898,0.074,1.384,0.025
			c0.771-0.08,1.402-0.266,1.895-0.563c0.492-0.295,0.878-0.633,1.152-1.017c0.272-0.385,0.462-0.782,0.553-1.198
			c0.087-0.362,0.112-0.681,0.097-0.969c0.321-0.233,0.604-0.483,0.804-0.766c0.272-0.384,0.46-0.782,0.556-1.198
			c0.098-0.413,0.13-0.78,0.098-1.096c-0.098-0.952-0.465-1.686-1.104-2.196c-0.638-0.515-1.565-0.708-2.778-0.583
			c-0.175,0.018-0.322,0.06-0.482,0.088c-0.18-0.329-0.412-0.619-0.707-0.855c-0.638-0.514-1.562-0.709-2.777-0.582
			c-0.703,0.072-1.294,0.241-1.776,0.505c-0.482,0.266-0.871,0.588-1.166,0.968c-0.156,0.199-0.281,0.411-0.385,0.632
			c-0.673,0.075-1.246,0.239-1.714,0.495c-0.48,0.266-0.868,0.587-1.164,0.968c-0.296,0.377-0.497,0.795-0.604,1.255
			c-0.105,0.455-0.134,0.919-0.086,1.389C330.771,8.056,330.908,8.489,331.135,8.843z"/>
	</g>
</g>
<g>
	<text transform="matrix(1 0 0 1 -27.6753 56.0713)" fill="#91C3E9" font-family="'MetaBlack-Roman'" font-size="83.9073">STELLER</text>
</g>
</svg>
