<?xml version="1.0" encoding="utf-8"?>
<!-- Generator: Adobe Illustrator 15.1.0, SVG Export Plug-In . SVG Version: 6.00 Build 0)  -->
<!DOCTYPE svg PUBLIC "-//W3C//DTD SVG 1.1//EN" "http://www.w3.org/Graphics/SVG/1.1/DTD/svg11.dtd">
<svg version="1.1" id="Layer_1" xmlns="http://www.w3.org/2000/svg" xmlns:xlink="http://www.w3.org/1999/xlink" x="0px" y="0px"
	 width="346.443px" height="53.5px" viewBox="0 0 346.443 53.5" enable-background="new 0 0 346.443 53.5" xml:space="preserve">
<text transform="matrix(1 0 0 1 2.441406e-004 52.21)" fill="#F3F3F3" font-family="'MetaBlack-Roman'" font-size="72">STELLER</text>
<text transform="matrix(1 0 0 1 265.4329 52.21)" display="none" fill="#59C98A" enable-background="new    " font-family="'Pacifico-Regular'" font-size="72">air</text>
<g>
	<path fill="#FFFFFF" d="M306.706,43.598c-0.54,0.75-1.261,1.629-2.162,2.637c-0.902,1.008-1.916,1.969-3.041,2.883
		s-2.333,1.688-3.621,2.32c-1.289,0.633-2.579,0.948-3.867,0.948c-1.547,0-2.836-0.497-3.867-1.493s-1.922-2.443-2.672-4.343
		c-0.563,0.656-1.254,1.324-2.074,2.005c-0.82,0.68-1.717,1.295-2.688,1.846c-0.973,0.551-1.986,1.002-3.041,1.354
		s-2.109,0.527-3.164,0.527c-1.125,0-2.221-0.229-3.287-0.686c-1.066-0.457-2.01-1.113-2.83-1.97
		c-0.821-0.854-1.477-1.897-1.969-3.129s-0.738-2.619-0.738-4.166c0-1.758,0.246-3.563,0.738-5.414s1.172-3.662,2.039-5.433
		c0.867-1.77,1.893-3.438,3.076-5.009c1.183-1.57,2.479-2.941,3.885-4.113c1.406-1.172,2.888-2.104,4.447-2.795
		c1.559-0.691,3.146-1.037,4.764-1.037c0.539,0,0.961,0.104,1.266,0.316c0.305,0.211,0.558,0.452,0.757,0.721
		c0.198,0.27,0.392,0.533,0.579,0.791c0.188,0.258,0.423,0.445,0.703,0.563c0.281,0.118,0.568,0.193,0.861,0.229
		c0.293,0.035,0.592,0.053,0.896,0.053c0.259,0,0.521-0.005,0.791-0.018c0.27-0.012,0.533-0.018,0.791-0.018
		c0.353,0,0.681,0.035,0.984,0.105s0.574,0.223,0.809,0.457s0.416,0.563,0.546,0.984c0.128,0.422,0.192,0.997,0.192,1.723
		c0,1.125-0.118,2.373-0.352,3.744c-0.234,1.371-0.492,2.777-0.773,4.219c-0.281,1.442-0.54,2.884-0.772,4.324
		c-0.234,1.441-0.353,2.808-0.353,4.096c0,1.103,0.101,1.964,0.299,2.584c0.199,0.621,0.627,0.933,1.283,0.933
		c0.492,0,1.007-0.123,1.547-0.369c0.539-0.246,1.084-0.567,1.636-0.967c0.55-0.397,1.102-0.849,1.651-1.354
		c0.55-0.504,1.072-1.024,1.564-1.563c1.147-1.267,2.308-2.695,3.479-4.289L306.706,43.598z M276.682,40.818
		c0,0.587,0.041,1.156,0.123,1.705c0.082,0.552,0.229,1.043,0.439,1.478c0.211,0.435,0.491,0.786,0.844,1.056
		c0.352,0.27,0.796,0.403,1.336,0.403c0.867,0,1.652-0.375,2.354-1.125c0.703-0.75,1.313-1.651,1.828-2.707
		c0.516-1.055,0.933-2.146,1.248-3.271c0.316-1.125,0.521-2.062,0.615-2.813l2.145-10.336c-0.961,0-1.897,0.241-2.813,0.721
		c-0.914,0.48-1.775,1.131-2.584,1.951c-0.809,0.821-1.553,1.758-2.232,2.813c-0.68,1.056-1.266,2.162-1.758,3.322
		s-0.874,2.326-1.143,3.498C276.817,38.688,276.682,39.788,276.682,40.818z"/>
	<path fill="#FFFFFF" d="M323.932,44.723c-0.844,0.772-1.893,1.6-3.146,2.479c-1.254,0.879-2.607,1.688-4.062,2.426
		s-2.936,1.354-4.447,1.846c-1.511,0.492-2.947,0.738-4.307,0.738c-1.219,0-2.245-0.17-3.076-0.51
		c-0.832-0.34-1.506-0.814-2.021-1.424c-0.517-0.609-0.885-1.354-1.107-2.232c-0.223-0.879-0.334-1.846-0.334-2.9
		c0-1.477,0.17-3.192,0.51-5.149s0.757-3.984,1.248-6.082c0.492-2.097,1.015-4.188,1.564-6.274c0.55-2.087,1.037-4.009,1.459-5.767
		c0.164-0.609,0.492-1.13,0.984-1.564c0.491-0.434,1.049-0.785,1.67-1.055c0.621-0.269,1.266-0.469,1.934-0.598
		c0.668-0.128,1.271-0.193,1.812-0.193c0.983,0,1.651,0.182,2.004,0.545c0.352,0.364,0.526,0.85,0.526,1.459
		c0,0.516-0.118,1.26-0.352,2.232c-0.234,0.973-0.527,2.074-0.879,3.305c-0.353,1.231-0.728,2.556-1.125,3.974
		c-0.399,1.418-0.773,2.836-1.125,4.254c-0.353,1.418-0.646,2.801-0.879,4.147c-0.234,1.349-0.353,2.562-0.353,3.64
		c0,1.055,0.117,1.893,0.353,2.514c0.233,0.621,0.715,0.932,1.44,0.932c0.844,0,1.781-0.293,2.813-0.879
		c1.03-0.585,2.074-1.295,3.129-2.127s2.086-1.693,3.094-2.584c1.007-0.891,1.898-1.652,2.672-2.285L323.932,44.723L323.932,44.723z
		"/>
	<path fill="#FFFFFF" d="M321.436,44.861c0-1.03,0.059-2.231,0.176-3.604c0.117-1.371,0.275-2.818,0.476-4.342
		c0.199-1.523,0.434-3.076,0.703-4.658c0.269-1.582,0.557-3.088,0.86-4.518c0.305-1.429,0.609-2.742,0.914-3.938
		c0.305-1.195,0.609-2.18,0.914-2.953c0.188-0.515,0.375-0.926,0.563-1.23c0.188-0.304,0.403-0.545,0.649-0.721
		c0.246-0.176,0.551-0.293,0.914-0.352c0.363-0.058,0.814-0.088,1.354-0.088c0.608,0,1.084,0.03,1.424,0.088
		c0.339,0.059,0.592,0.199,0.756,0.422c0.164,0.223,0.264,0.545,0.299,0.967s0.054,0.997,0.054,1.723c0,0.867,0,1.916,0,3.146
		s0.022,2.443,0.069,3.639h0.388c0.469-0.938,0.995-1.986,1.582-3.146c0.585-1.16,1.266-2.244,2.038-3.252
		c0.773-1.007,1.652-1.857,2.638-2.549c0.983-0.691,2.121-1.037,3.41-1.037c0.444,0,0.878,0.076,1.3,0.229s0.791,0.369,1.106,0.65
		c0.316,0.281,0.568,0.627,0.757,1.037c0.188,0.41,0.28,0.874,0.28,1.389c0,0.399-0.059,0.955-0.176,1.67
		c-0.117,0.715-0.246,1.465-0.387,2.25c-0.142,0.786-0.271,1.547-0.388,2.285c-0.116,0.738-0.176,1.354-0.176,1.846
		c0,0.845,0.082,1.547,0.246,2.109s0.434,0.979,0.65,1.354c1.486,2.556-3.347,7.806-5.958,4.923
		c-0.888-0.979-1.103-2.461-1.406-3.902c-0.305-1.44-0.551-2.899-0.738-4.377h-0.563l-6.293,17.543
		c-0.329,0.914-0.64,1.67-0.933,2.269c-0.293,0.598-0.592,1.084-0.896,1.459c-0.305,0.375-0.633,0.639-0.984,0.791
		s-0.737,0.229-1.16,0.229c-0.961,0-1.734-0.205-2.319-0.615c-0.586-0.41-1.037-0.961-1.354-1.652
		c-0.315-0.69-0.526-1.477-0.633-2.354C321.489,46.711,321.436,45.8,321.436,44.861z"/>
</g>
<path fill="#FFFFFF" d="M307.89,11.682c0.193,0.303,0.437,0.539,0.729,0.706c0.063,0.037,0.139,0.062,0.208,0.093
	c0.001,0.114-0.006,0.228,0.007,0.343c0.045,0.438,0.164,0.809,0.356,1.112s0.436,0.538,0.729,0.706s0.627,0.279,1.004,0.336
	c0.376,0.057,0.771,0.064,1.187,0.021c0.663-0.068,1.206-0.229,1.628-0.481c0.058-0.035,0.1-0.075,0.153-0.111
	c0.212,0.086,0.438,0.157,0.687,0.195c0.376,0.057,0.771,0.064,1.187,0.022c0.663-0.068,1.206-0.229,1.628-0.482
	c0.423-0.253,0.752-0.544,0.987-0.873c0.234-0.33,0.395-0.672,0.477-1.028c0.073-0.311,0.096-0.584,0.083-0.831
	c0.274-0.201,0.517-0.415,0.688-0.657c0.234-0.33,0.395-0.672,0.478-1.028c0.083-0.355,0.111-0.669,0.083-0.941
	c-0.084-0.817-0.399-1.446-0.947-1.885c-0.548-0.44-1.344-0.607-2.386-0.5c-0.148,0.016-0.275,0.052-0.414,0.077
	c-0.153-0.284-0.352-0.532-0.604-0.735c-0.547-0.44-1.342-0.607-2.384-0.5c-0.604,0.062-1.112,0.207-1.525,0.435
	c-0.414,0.228-0.747,0.504-1,0.83c-0.133,0.171-0.241,0.352-0.33,0.542c-0.577,0.065-1.07,0.205-1.47,0.425
	c-0.413,0.228-0.747,0.504-1,0.83c-0.254,0.325-0.426,0.683-0.519,1.076c-0.091,0.392-0.115,0.789-0.074,1.192
	C307.578,11.007,307.697,11.378,307.89,11.682z"/>
</svg>
