<?xml version="1.0" encoding="utf-8"?>
<!-- Generator: Adobe Illustrator 15.1.0, SVG Export Plug-In . SVG Version: 6.00 Build 0)  -->
<!DOCTYPE svg PUBLIC "-//W3C//DTD SVG 1.1//EN" "http://www.w3.org/Graphics/SVG/1.1/DTD/svg11.dtd">
<svg version="1.1" id="Layer_1" xmlns="http://www.w3.org/2000/svg" xmlns:xlink="http://www.w3.org/1999/xlink" x="0px" y="0px"
	 width="88.427px" height="89.427px" viewBox="10.755 -5.683 88.427 89.427" enable-background="new 10.755 -5.683 88.427 89.427"
	 xml:space="preserve">
<path opacity="0.2" d="M98.019,60.764l0.019-0.018L74.923,30.893l4.799-8.29l3.866,3.866l1.414-1.414l-4.243-4.243l-1.414-1.414
	l1.414-5.657l-5.656,1.415l-1.414-1.415l-4.243-4.243l-1.414,1.415l3.865,3.865l-8.289,4.799L33.753-3.537l-0.017,0.018
	c-1.964-1.636-4.875-1.554-6.717,0.289c-1.953,1.953-1.953,5.118,0,7.071l24.842,27.528L27.726,59.703
	c0,0-12.021-6.364-16.971-1.414l9.9,9.899l-1.415,7.07l7.071-1.414l9.899,9.899c4.95-4.949-1.414-16.971-1.414-16.971l28.333-24.135
	l27.527,24.843c1.953,1.952,5.118,1.953,7.071,0C99.572,65.639,99.654,62.728,98.019,60.764z"/>
<path fill="#FFFFFF" d="M98.019,59.764l0.019-0.018L74.923,29.893l4.799-8.29l3.866,3.866l1.414-1.414l-4.243-4.243l-1.414-1.414
	l1.414-5.657l-5.656,1.415l-1.414-1.415l-4.243-4.243l-1.414,1.415l3.865,3.865l-8.289,4.799L33.753-4.537l-0.017,0.018
	c-1.964-1.636-4.875-1.554-6.717,0.289c-1.953,1.953-1.953,5.118,0,7.071l24.842,27.528L27.726,58.703
	c0,0-12.021-6.364-16.971-1.414l9.9,9.899l-1.415,7.07l7.071-1.414l9.899,9.899c4.95-4.949-1.414-16.971-1.414-16.971l28.333-24.135
	l27.527,24.843c1.953,1.952,5.118,1.953,7.071,0C99.572,64.639,99.654,61.728,98.019,59.764z"/>
</svg>
